<svg fill="none" height="20" viewBox="0 0 20 20" width="20" xmlns="http://www.w3.org/2000/svg"><g fill="#48A3A7"><path d="m3 5.5c0-1.38071 1.11929-2.5 2.5-2.5h9c1.3807 0 2.5 1.11929 2.5 2.5v4.09971c-.7501-.38343-1.5998-.59971-2.5-.59971-3.0376 0-5.5 2.4624-5.5 5.5 0 .9002.21628 1.7499.59971 2.5h-4.09971c-1.38071 0-2.5-1.1193-2.5-2.5zm5.85355 1.35355c.19527-.19526.19527-.51184 0-.7071-.19526-.19527-.51184-.19527-.7071 0l-1.64645 1.64644-.64645-.64644c-.19526-.19527-.51184-.19527-.7071 0-.19527.19526-.19527.51184 0 .7071l1 1c.19526.19527.51184.19527.7071 0zm0 4.29285c-.19526-.1952-.51184-.1952-.7071 0l-1.64645 1.6465-.64645-.6465c-.19526-.1952-.51184-.1952-.7071 0-.19527.1953-.19527.5119 0 .7072l1 1c.19526.1952.51184.1952.7071 0l2-2c.19527-.1953.19527-.5119 0-.7072zm1.64645-4.1464c-.2761 0-.5.22386-.5.5s.2239.5.5.5h3c.2761 0 .5-.22386.5-.5s-.2239-.5-.5-.5z"/><path d="m14.5 19c2.4853 0 4.5-2.0147 4.5-4.5s-2.0147-4.5-4.5-4.5-4.5 2.0147-4.5 4.5 2.0147 4.5 4.5 4.5zm0-7c.2761 0 .5.2239.5.5v1.5h1.5c.2761 0 .5.2239.5.5s-.2239.5-.5.5h-1.5v1.5c0 .2761-.2239.5-.5.5s-.5-.2239-.5-.5v-1.5h-1.5c-.2761 0-.5-.2239-.5-.5s.2239-.5.5-.5h1.5v-1.5c0-.2761.2239-.5.5-.5z"/></g></svg>